<svg width="45" height="45" viewBox="0 0 45 45" fill="none" xmlns="http://www.w3.org/2000/svg">
<path d="M15.5725 40.3168C12.3859 40.5783 10.5781 39.6291 9.52649 38.3901C8.98486 37.752 8.66943 37.0659 8.46185 36.5061C8.37606 36.2748 8.30671 36.0591 8.24985 35.8823C8.2384 35.8467 8.22745 35.8126 8.21698 35.7803C8.14704 35.5648 8.10912 35.4664 8.08585 35.427L8.08202 35.4205L8.08207 35.4205C7.70333 34.7566 7.07186 34.3194 6.48839 33.9155C6.46222 33.8974 6.43616 33.8793 6.41021 33.8613C6.14099 33.6746 5.82091 33.4515 5.63388 33.1979C5.53058 33.0578 5.43558 32.8676 5.43806 32.6347C5.44058 32.398 5.54277 32.1987 5.67583 32.041L5.73846 31.9668L5.82433 31.9214C6.77687 31.4179 7.74959 31.4982 8.69971 32.0804C9.61407 32.6408 10.5177 33.6679 11.4475 35.0783L11.4479 35.0788C12.0099 35.9339 12.8372 36.2996 13.7135 36.4119C14.475 36.5095 15.2493 36.4106 15.8502 36.2792C16.1003 35.3935 16.5146 34.5775 17.0598 33.872C13.8755 33.1401 11.535 31.738 9.96221 29.8654C8.25261 27.83 7.48849 25.2846 7.48849 22.5568C7.48849 19.9844 8.28547 17.5986 9.85888 15.6457C8.95573 12.578 9.96444 9.97756 10.1746 9.43577C10.1829 9.41444 10.1899 9.39629 10.1956 9.38144L10.3063 9.08945L10.6173 9.06086C12.2181 8.91369 13.81 9.50066 14.9957 10.1116C15.9134 10.5845 16.6261 11.0919 16.9675 11.3505C18.6168 10.9199 20.4759 10.6958 22.5327 10.6958C24.6031 10.6958 26.4688 10.9302 28.1317 11.3668C28.5357 11.0667 29.303 10.5373 30.2638 10.0692C31.4129 9.50929 32.8935 9.00984 34.3834 9.14871L34.6977 9.17801L34.8064 9.47443C34.8132 9.49289 34.8221 9.51646 34.833 9.54496C35.0487 10.1124 36.0069 12.6325 35.1689 15.6253C36.7641 17.5854 37.5718 19.9927 37.5718 22.5723C37.5718 25.3058 36.8024 27.8554 35.0848 29.8908C33.504 31.7641 31.1529 33.1631 27.9572 33.8859C28.341 34.387 28.6578 34.9398 28.8982 35.5296C29.2517 36.3967 29.4332 37.3271 29.4325 38.2664M15.5725 40.3168L28.9325 38.266M15.5725 40.3168V43.7658C15.5725 43.8423 15.5752 43.922 15.5776 43.993L15.5783 44.0132C15.5809 44.093 15.583 44.1639 15.5823 44.2314C15.5811 44.3594 15.5696 44.4327 15.5572 44.4718C15.5161 44.4782 15.4147 44.4821 15.2183 44.4335C6.65614 41.3481 0.5 32.965 0.5 23.0939C0.5 10.597 10.3582 0.494958 22.5023 0.500002L22.5025 1.93376e-06L15.5725 40.3168ZM29.4325 38.2664L28.9325 38.266M29.4325 38.2664V38.266H28.9325M29.4325 38.2664V44.0544M28.9325 38.266V44.0756M29.4325 44.0544C29.4319 44.0473 29.4313 44.04 29.4307 44.0325L28.9325 44.0756M29.4325 44.0544C29.4366 44.104 29.4395 44.1451 29.4421 44.182C29.4464 44.2446 29.4499 44.2949 29.4573 44.3536C29.4662 44.4235 29.4764 44.4587 29.4826 44.4746M29.4325 44.0544V44.0756H28.9325M28.9325 44.0756L29.4826 44.4746M29.4826 44.4746C29.4797 44.4735 29.4775 44.4725 29.4761 44.4718C29.4747 44.4711 29.4741 44.4708 29.4741 44.4708C29.474 44.4708 29.4767 44.4724 29.4804 44.4762C29.4857 44.4814 29.4874 44.4851 29.4862 44.4829C29.4853 44.481 29.484 44.4784 29.4826 44.4746ZM29.6866 44.5C29.6573 44.5 29.6316 44.4991 29.6092 44.4975C29.5805 44.5076 29.5518 44.5176 29.523 44.5275L29.6866 45V44.5ZM27.0171 33.5667C27.1547 33.7057 27.2859 33.8507 27.4103 34.0014L27.5973 33.4529C27.407 33.4932 27.2136 33.5312 27.0171 33.5667Z" fill="black" stroke="black"/>
</svg>
