<svg width="45" height="45" viewBox="0 0 45 45" fill="none" xmlns="http://www.w3.org/2000/svg">
<path d="M16.9922 32.3258H17.4922V31.8258V17.1633V16.6633H16.9922H12.4359H11.9359V17.1633V31.8258V32.3258H12.4359H16.9922ZM17.6422 13.0828H17.6423L17.6421 13.0719C17.6255 12.3135 17.3499 11.6163 16.8357 11.1071C16.3194 10.596 15.5956 10.307 14.7445 10.307C13.895 10.307 13.159 10.5948 12.6324 11.1024C12.1057 11.6101 11.8164 12.3116 11.8164 13.0828C11.8164 14.6199 12.9707 15.8633 14.6859 15.8633C15.5644 15.8633 16.3089 15.568 16.8362 15.0539C17.3624 14.5408 17.6422 13.8385 17.6422 13.0828ZM28.5766 31.8258V32.3258H29.0766H33.6328V31.8258H34.1328V23.1562C34.1328 20.9147 33.5488 19.1999 32.5061 18.0401C31.4583 16.8747 30.0017 16.3305 28.3875 16.3305C26.4119 16.3305 25.0154 17.1714 24.152 18.0396L24.0568 17.11L24.0108 16.6609H23.5594H19.6008H19.0771L19.1013 17.184C19.1621 18.4977 19.2203 20.0196 19.2203 21.8391V31.8234V32.3234H19.7203H24.2789H24.7789V31.8234V23.3695C24.7789 22.9518 24.8128 22.6183 24.894 22.4199L24.894 22.4199L24.8963 22.4141C25.1826 21.6893 25.7881 21.0242 26.768 21.0242C27.4396 21.0242 27.8535 21.2737 28.1239 21.6799C28.4165 22.1193 28.5766 22.7981 28.5766 23.7V31.8258ZM0.5 22.5C0.5 10.3496 10.3496 0.5 22.5 0.5C34.6504 0.5 44.5 10.3496 44.5 22.5C44.5 34.6504 34.6504 44.5 22.5 44.5C10.3496 44.5 0.5 34.6504 0.5 22.5Z" fill="black" stroke="black"/>
</svg>
