<svg width="45" height="45" viewBox="0 0 45 45" fill="none" xmlns="http://www.w3.org/2000/svg">
<path d="M44.5 22.6256C44.5 33.359 36.8526 42.3179 26.75 44.3952V29.2494H31.2506H31.677L31.7444 28.8283L32.7437 22.579L32.8363 22H32.25H26.75V18.1256C26.75 17.2928 26.9019 16.6634 27.2797 16.2382C27.6476 15.8244 28.3248 15.5 29.625 15.5H32.4994H32.9994V15V9.24938V8.8203L32.5753 8.75517C30.9541 8.50618 29.1675 8.25062 27.5006 8.25062C24.8368 8.25062 22.5154 9.06357 20.8568 10.6548C19.1948 12.2493 18.25 14.5759 18.25 17.4994V22H13.125H12.625V22.5V28.7494V29.2494H13.125H18.25V44.3952C8.14739 42.3178 0.5 33.3572 0.5 22.6256C0.5 10.4548 10.4038 0.5 22.5 0.5C34.5962 0.5 44.5 10.4548 44.5 22.6256Z" fill="black" stroke="black"/>
</svg>
