<svg width="55" height="61" viewBox="0 0 55 61" fill="none" xmlns="http://www.w3.org/2000/svg">
<path d="M26.0156 0.851318V10.3725H29.2496V0.851318H26.0153H26.0156V0.851318ZM12.8101 3.71257L10.1605 5.56772L15.6207 13.365L18.2688 11.5098L12.8101 3.71257ZM42.4544 3.71257L36.9959 11.5099L39.6444 13.3651L45.1045 5.56772L42.4549 3.71257H42.4544V3.71257ZM27.6319 12.9775C19.7206 12.9775 13.3073 17.7817 13.3073 23.7088L21.4459 48.3562H33.8194L41.9573 23.7088C41.9573 17.7818 35.5444 12.9775 27.6327 12.9775H27.6319V12.9775ZM1.90573 15.835L0.800781 18.8757L9.74323 22.1314L10.8523 19.0921L1.90553 15.835H1.90573V15.835ZM53.3588 15.835L44.412 19.0924L45.5173 22.132L54.4641 18.8757L53.3588 15.835V15.835ZM10.4203 29.7354L1.22528 32.2017L2.05958 35.3232L11.2546 32.8605L10.4204 29.7354H10.4203V29.7354ZM44.8443 29.7354L44.0106 32.8604L53.2056 35.3228L54.0393 32.2012L44.8443 29.7353V29.7354V29.7354ZM21.2655 50.1529V54.4372H33.9998V50.1536H21.2655L21.2655 50.1529ZM21.2655 56.567V60.8513H33.9998V56.5677H21.2655L21.2655 56.567Z" fill="#6D59A8"/>
</svg>
