<svg width="56" height="55" viewBox="0 0 56 55" fill="none" xmlns="http://www.w3.org/2000/svg">
<path d="M13.405 30.3508L23.7125 40.6642L19.5912 44.7883L23.7183 48.9154L19.5942 53.0396L12.3754 45.8208L4.12417 54.0721L0 49.9479L8.25125 41.6938L1.0325 34.4779L5.15667 30.3538L9.28083 34.475L13.4021 30.3508H13.405ZM1.5925 0L11.935 0.00875006L46.4013 34.4779L50.5283 30.3538L54.6525 34.4779L47.4367 41.6967L55.685 49.9479L51.5608 54.0721L43.3096 45.8208L36.0908 53.0396L31.9667 48.9154L36.0908 44.7883L1.60125 10.2988L1.5925 0ZM43.7588 0L54.0925 0.00875006L54.0983 10.2842L42.2771 22.1025L31.9637 11.7921L43.7588 0Z" fill="#6D59A8"/>
</svg>
