<svg width="61" height="61" viewBox="0 0 61 61" fill="none" xmlns="http://www.w3.org/2000/svg">
<path d="M59.9726 15.1913C60.2868 14.8767 60.5008 14.4759 60.5875 14.0397C60.6741 13.6036 60.6296 13.1515 60.4594 12.7406C60.2893 12.3297 60.0012 11.9784 59.6316 11.7312C59.2619 11.4839 58.8273 11.3517 58.3826 11.3513H50.1326V3.10134C50.1322 2.65662 50 2.22199 49.7527 1.85235C49.5055 1.4827 49.1542 1.19462 48.7433 1.02448C48.3324 0.854349 47.8804 0.809795 47.4442 0.896448C47.008 0.983101 46.6072 1.19707 46.2926 1.51134L38.7926 9.01134C38.3705 9.43289 38.1331 10.0048 38.1326 10.6013V19.1093L32.1866 25.0553C30.9107 24.7134 29.5577 24.8019 28.3374 25.3073C27.1171 25.8127 26.0976 26.7067 25.4371 27.8505C24.7766 28.9944 24.5121 30.3242 24.6845 31.6338C24.8568 32.9433 25.4565 34.1594 26.3905 35.0934C27.3245 36.0274 28.5406 36.6271 29.8501 36.7994C31.1597 36.9718 32.4895 36.7072 33.6334 36.0468C34.7772 35.3863 35.6712 34.3668 36.1766 33.1465C36.682 31.9262 36.7705 30.5731 36.4286 29.2973L42.3746 23.3513H50.8826C51.4791 23.3508 52.051 23.1134 52.4726 22.6913L59.9726 15.1913V15.1913ZM30.6326 0.851344C34.1357 0.84678 37.6124 1.45704 40.9046 2.65434L36.6686 6.89034C36.4826 7.07634 36.3086 7.28034 36.1556 7.49034C31.0735 6.29009 25.7387 6.78008 20.9603 8.88599C16.1819 10.9919 12.2207 14.5988 9.67761 19.1596C7.13452 23.7203 6.14829 28.9861 6.86853 34.158C7.58877 39.33 9.97617 44.1259 13.6686 47.8183C17.361 51.5107 22.1569 53.8981 27.3289 54.6184C32.5008 55.3386 37.7666 54.3524 42.3273 51.8093C46.8881 49.2662 50.495 45.305 52.6009 40.5266C54.7068 35.7482 55.1968 30.4134 53.9966 25.3313C54.2066 25.1753 54.4076 25.0013 54.5966 24.8123L58.8266 20.5823C60.0244 23.8734 60.6357 27.3491 60.6326 30.8513C60.6326 47.4203 47.2016 60.8513 30.6326 60.8513C14.0636 60.8513 0.632568 47.4203 0.632568 30.8513C0.632568 14.2823 14.0636 0.851344 30.6326 0.851344ZM30.6326 12.8513C32.1866 12.8513 33.6926 13.0493 35.1326 13.4183V17.8643L33.8906 19.1093C33.8407 19.1585 33.7917 19.2085 33.7436 19.2593C31.9654 18.7851 30.1021 18.7257 28.2973 19.0857C26.4926 19.4457 24.7947 20.2154 23.3345 21.3355C21.8744 22.4556 20.691 23.8962 19.8758 25.5461C19.0606 27.1959 18.6352 29.011 18.6326 30.8513C18.6338 32.559 18.9994 34.2467 19.7051 35.8017C20.4108 37.3567 21.4402 38.7432 22.7246 39.8685C24.0089 40.9939 25.5187 41.8321 27.153 42.3273C28.7873 42.8224 30.5084 42.9631 32.2014 42.7398C33.8944 42.5166 35.5202 41.9346 36.9702 41.0327C38.4203 40.1308 39.6612 38.9299 40.6099 37.5101C41.5587 36.0902 42.1935 34.4843 42.472 32.7995C42.7504 31.1147 42.6661 29.3899 42.2246 27.7403L42.3746 27.5933L43.6166 26.3513H48.0656C49.004 29.9859 48.7827 33.823 47.4325 37.3255C46.0824 40.8281 43.671 43.8209 40.5358 45.8852C37.4005 47.9495 33.6984 48.9819 29.9474 48.8381C26.1964 48.6943 22.5842 47.3813 19.6162 45.083C16.6483 42.7846 14.4732 39.6159 13.3953 36.0203C12.3173 32.4246 12.3905 28.5819 13.6045 25.0298C14.8186 21.4778 17.1127 18.3942 20.166 16.2105C23.2192 14.0268 26.8788 12.8523 30.6326 12.8513V12.8513Z" fill="#6D59A8"/>
</svg>
