<svg width="299" height="330" viewBox="0 0 299 330" fill="none" xmlns="http://www.w3.org/2000/svg">
<g clip-path="url(#clip0)">
<path d="M203.375 143.681V166.398H185.438V137.754H198.125L203.375 143.681Z" stroke="white" stroke-opacity="0.5" stroke-width="2" stroke-miterlimit="10"/>
<path d="M209.062 136.767V162.941L210.812 166.892L212.562 162.941V136.767H209.062Z" stroke="white" stroke-opacity="0.5" stroke-width="2" stroke-miterlimit="10"/>
<path d="M188.5 142.693H193.75" stroke="white" stroke-opacity="0.5" stroke-width="2" stroke-miterlimit="10"/>
<path d="M188.5 147.632H200.312" stroke="white" stroke-opacity="0.5" stroke-width="2" stroke-miterlimit="10"/>
<path d="M188.5 151.583H200.312" stroke="white" stroke-opacity="0.5" stroke-width="2" stroke-miterlimit="10"/>
<path d="M188.5 155.533H200.312" stroke="white" stroke-opacity="0.5" stroke-width="2" stroke-miterlimit="10"/>
<path d="M188.5 159.484H200.312" stroke="white" stroke-opacity="0.5" stroke-width="2" stroke-miterlimit="10"/>
<path d="M203.375 143.681H198.125V137.754" stroke="white" stroke-opacity="0.5" stroke-width="2" stroke-miterlimit="10"/>
<path d="M209.062 141.705H212.562" stroke="white" stroke-opacity="0.5" stroke-width="2" stroke-miterlimit="10"/>
</g>
<g clip-path="url(#clip1)">
<path d="M11.5 328.558V294.129L42 328.558H11.5Z" stroke="white" stroke-opacity="0.5" stroke-width="2" stroke-miterlimit="10"/>
<path d="M18 323.479V309.932L30 323.479H18Z" stroke="white" stroke-opacity="0.5" stroke-width="2" stroke-miterlimit="10"/>
<path d="M15 305.417H12" stroke="white" stroke-opacity="0.5" stroke-width="2" stroke-miterlimit="10"/>
<path d="M14 309.932H12" stroke="white" stroke-opacity="0.5" stroke-width="2" stroke-miterlimit="10"/>
<path d="M15 314.448H12" stroke="white" stroke-opacity="0.5" stroke-width="2" stroke-miterlimit="10"/>
<path d="M14 318.963H12" stroke="white" stroke-opacity="0.5" stroke-width="2" stroke-miterlimit="10"/>
<path d="M15 323.479H12" stroke="white" stroke-opacity="0.5" stroke-width="2" stroke-miterlimit="10"/>
<path d="M23.5 293.564L20.5 296.951L38.5 317.27L42.5 318.399L41.5 313.883L23.5 293.564Z" stroke="white" stroke-opacity="0.5" stroke-width="2" stroke-miterlimit="10"/>
<path d="M23.5 300.337L26.5 296.951" stroke="white" stroke-opacity="0.5" stroke-width="2" stroke-miterlimit="10"/>
</g>
<g clip-path="url(#clip2)">
<path d="M0.5 53.5582V19.1288L31 53.5582H0.5Z" stroke="white" stroke-opacity="0.5" stroke-width="2" stroke-miterlimit="10"/>
<path d="M7 48.4785V34.9325L19 48.4785H7Z" stroke="white" stroke-opacity="0.5" stroke-width="2" stroke-miterlimit="10"/>
<path d="M4 30.4172H1" stroke="white" stroke-opacity="0.5" stroke-width="2" stroke-miterlimit="10"/>
<path d="M3 34.9325H1" stroke="white" stroke-opacity="0.5" stroke-width="2" stroke-miterlimit="10"/>
<path d="M4 39.4479H1" stroke="white" stroke-opacity="0.5" stroke-width="2" stroke-miterlimit="10"/>
<path d="M3 43.9633H1" stroke="white" stroke-opacity="0.5" stroke-width="2" stroke-miterlimit="10"/>
<path d="M4 48.4785H1" stroke="white" stroke-opacity="0.5" stroke-width="2" stroke-miterlimit="10"/>
<path d="M12.5 18.5645L9.5 21.951L27.5 42.27L31.5 43.3988L30.5 38.8835L12.5 18.5645Z" stroke="white" stroke-opacity="0.5" stroke-width="2" stroke-miterlimit="10"/>
<path d="M12.5 25.3374L15.5 21.9509" stroke="white" stroke-opacity="0.5" stroke-width="2" stroke-miterlimit="10"/>
</g>
<path d="M19 179.258L4 187.724L19 196.19" stroke="white" stroke-opacity="0.5" stroke-width="2"/>
<path d="M66 196.19L81 187.724L66 179.258" stroke="white" stroke-opacity="0.5" stroke-width="2"/>
<path d="M33.25 187.867C33.25 189.159 32.9531 190.198 32.3594 190.984C31.7656 191.766 30.9688 192.156 29.9688 192.156C28.901 192.156 28.0755 191.779 27.4922 191.023L27.4219 192H26.0938V180H27.5391V184.477C28.1224 183.753 28.9271 183.391 29.9531 183.391C30.9792 183.391 31.7839 183.779 32.3672 184.555C32.9557 185.331 33.25 186.393 33.25 187.742V187.867ZM31.8047 187.703C31.8047 186.719 31.6146 185.958 31.2344 185.422C30.8542 184.885 30.3073 184.617 29.5938 184.617C28.6406 184.617 27.9557 185.06 27.5391 185.945V189.602C27.9818 190.487 28.6719 190.93 29.6094 190.93C30.3021 190.93 30.8411 190.661 31.2266 190.125C31.612 189.589 31.8047 188.781 31.8047 187.703ZM34.6953 187.695C34.6953 186.867 34.8568 186.122 35.1797 185.461C35.5078 184.799 35.9609 184.289 36.5391 183.93C37.1224 183.57 37.7865 183.391 38.5312 183.391C39.6823 183.391 40.612 183.789 41.3203 184.586C42.0339 185.383 42.3906 186.443 42.3906 187.766V187.867C42.3906 188.69 42.2318 189.43 41.9141 190.086C41.6016 190.737 41.151 191.245 40.5625 191.609C39.9792 191.974 39.3073 192.156 38.5469 192.156C37.401 192.156 36.4714 191.758 35.7578 190.961C35.0495 190.164 34.6953 189.109 34.6953 187.797V187.695ZM36.1484 187.867C36.1484 188.805 36.3646 189.557 36.7969 190.125C37.2344 190.693 37.8177 190.977 38.5469 190.977C39.2812 190.977 39.8646 190.69 40.2969 190.117C40.7292 189.539 40.9453 188.732 40.9453 187.695C40.9453 186.768 40.724 186.018 40.2812 185.445C39.8438 184.867 39.2604 184.578 38.5312 184.578C37.8177 184.578 37.2422 184.862 36.8047 185.43C36.3672 185.997 36.1484 186.81 36.1484 187.867ZM43.8516 187.703C43.8516 186.406 44.1589 185.365 44.7734 184.578C45.388 183.786 46.1927 183.391 47.1875 183.391C48.1771 183.391 48.9609 183.729 49.5391 184.406V180H50.9844V192H49.6562L49.5859 191.094C49.0078 191.802 48.2031 192.156 47.1719 192.156C46.1927 192.156 45.3932 191.755 44.7734 190.953C44.1589 190.151 43.8516 189.104 43.8516 187.812V187.703ZM45.2969 187.867C45.2969 188.826 45.4948 189.576 45.8906 190.117C46.2865 190.659 46.8333 190.93 47.5312 190.93C48.4479 190.93 49.1172 190.518 49.5391 189.695V185.812C49.1068 185.016 48.4427 184.617 47.5469 184.617C46.8385 184.617 46.2865 184.891 45.8906 185.438C45.4948 185.984 45.2969 186.794 45.2969 187.867ZM56 189.883L57.9688 183.547H59.5156L56.1172 193.305C55.5911 194.711 54.7552 195.414 53.6094 195.414L53.3359 195.391L52.7969 195.289V194.117L53.1875 194.148C53.6771 194.148 54.0573 194.049 54.3281 193.852C54.6042 193.654 54.8307 193.292 55.0078 192.766L55.3281 191.906L52.3125 183.547H53.8906L56 189.883Z" fill="white" fill-opacity="0.5"/>
<path d="M226 2.25769L211 10.7239L226 19.1902" stroke="white" stroke-opacity="0.5" stroke-width="2"/>
<path d="M273 19.1903L288 10.724L273 2.25779" stroke="white" stroke-opacity="0.5" stroke-width="2"/>
<path d="M234.539 7.57031C235.18 6.78385 236.013 6.39062 237.039 6.39062C238.826 6.39062 239.727 7.39844 239.742 9.41406V15H238.297V9.40625C238.292 8.79688 238.151 8.34635 237.875 8.05469C237.604 7.76302 237.18 7.61719 236.602 7.61719C236.133 7.61719 235.721 7.74219 235.367 7.99219C235.013 8.24219 234.737 8.57031 234.539 8.97656V15H233.094V3H234.539V7.57031ZM245.414 15.1562C244.268 15.1562 243.336 14.7812 242.617 14.0312C241.898 13.276 241.539 12.2682 241.539 11.0078V10.7422C241.539 9.90365 241.698 9.15625 242.016 8.5C242.339 7.83854 242.786 7.32292 243.359 6.95312C243.938 6.57812 244.562 6.39062 245.234 6.39062C246.333 6.39062 247.188 6.7526 247.797 7.47656C248.406 8.20052 248.711 9.23698 248.711 10.5859V11.1875H242.984C243.005 12.0208 243.247 12.6953 243.711 13.2109C244.18 13.7214 244.773 13.9766 245.492 13.9766C246.003 13.9766 246.435 13.8724 246.789 13.6641C247.143 13.4557 247.453 13.1797 247.719 12.8359L248.602 13.5234C247.893 14.612 246.831 15.1562 245.414 15.1562ZM245.234 7.57812C244.651 7.57812 244.161 7.79167 243.766 8.21875C243.37 8.64062 243.125 9.23438 243.031 10H247.266V9.89062C247.224 9.15625 247.026 8.58854 246.672 8.1875C246.318 7.78125 245.839 7.57812 245.234 7.57812ZM255.609 15C255.526 14.8333 255.458 14.5365 255.406 14.1094C254.734 14.8073 253.932 15.1562 253 15.1562C252.167 15.1562 251.482 14.9219 250.945 14.4531C250.414 13.9792 250.148 13.3802 250.148 12.6562C250.148 11.776 250.482 11.0938 251.148 10.6094C251.82 10.1198 252.763 9.875 253.977 9.875H255.383V9.21094C255.383 8.70573 255.232 8.30469 254.93 8.00781C254.628 7.70573 254.182 7.55469 253.594 7.55469C253.078 7.55469 252.646 7.6849 252.297 7.94531C251.948 8.20573 251.773 8.52083 251.773 8.89062H250.32C250.32 8.46875 250.469 8.0625 250.766 7.67188C251.068 7.27604 251.474 6.96354 251.984 6.73438C252.5 6.50521 253.065 6.39062 253.68 6.39062C254.654 6.39062 255.417 6.63542 255.969 7.125C256.521 7.60938 256.807 8.27865 256.828 9.13281V13.0234C256.828 13.7995 256.927 14.4167 257.125 14.875V15H255.609ZM253.211 13.8984C253.664 13.8984 254.094 13.7812 254.5 13.5469C254.906 13.3125 255.201 13.0078 255.383 12.6328V10.8984H254.25C252.479 10.8984 251.594 11.4167 251.594 12.4531C251.594 12.9062 251.745 13.2604 252.047 13.5156C252.349 13.7708 252.737 13.8984 253.211 13.8984ZM258.742 10.7031C258.742 9.40625 259.049 8.36458 259.664 7.57812C260.279 6.78646 261.083 6.39062 262.078 6.39062C263.068 6.39062 263.852 6.72917 264.43 7.40625V3H265.875V15H264.547L264.477 14.0938C263.898 14.8021 263.094 15.1562 262.062 15.1562C261.083 15.1562 260.284 14.7552 259.664 13.9531C259.049 13.151 258.742 12.1042 258.742 10.8125V10.7031ZM260.188 10.8672C260.188 11.8255 260.385 12.5755 260.781 13.1172C261.177 13.6589 261.724 13.9297 262.422 13.9297C263.339 13.9297 264.008 13.5182 264.43 12.6953V8.8125C263.997 8.01562 263.333 7.61719 262.438 7.61719C261.729 7.61719 261.177 7.89062 260.781 8.4375C260.385 8.98438 260.188 9.79427 260.188 10.8672Z" fill="white" fill-opacity="0.5"/>
<path d="M234 294.104L219 302.571L234 311.037" stroke="white" stroke-opacity="0.5" stroke-width="2"/>
<path d="M281 311.037L296 302.57L281 294.104" stroke="white" stroke-opacity="0.5" stroke-width="2"/>
<path d="M246.016 304.604C246.016 304.214 245.867 303.912 245.57 303.698C245.279 303.479 244.766 303.292 244.031 303.136C243.302 302.979 242.721 302.792 242.289 302.573C241.862 302.354 241.544 302.094 241.336 301.792C241.133 301.49 241.031 301.13 241.031 300.714C241.031 300.021 241.323 299.435 241.906 298.956C242.495 298.477 243.245 298.237 244.156 298.237C245.115 298.237 245.891 298.485 246.484 298.979C247.083 299.474 247.383 300.107 247.383 300.878H245.93C245.93 300.482 245.76 300.141 245.422 299.854C245.089 299.568 244.667 299.425 244.156 299.425C243.63 299.425 243.219 299.539 242.922 299.768C242.625 299.998 242.477 300.297 242.477 300.667C242.477 301.016 242.615 301.279 242.891 301.456C243.167 301.633 243.664 301.802 244.383 301.964C245.107 302.125 245.693 302.318 246.141 302.542C246.589 302.766 246.919 303.037 247.133 303.354C247.352 303.667 247.461 304.05 247.461 304.503C247.461 305.258 247.159 305.865 246.555 306.323C245.951 306.776 245.167 307.003 244.203 307.003C243.526 307.003 242.927 306.883 242.406 306.643C241.885 306.404 241.477 306.071 241.18 305.643C240.888 305.211 240.742 304.745 240.742 304.245H242.188C242.214 304.729 242.406 305.115 242.766 305.401C243.13 305.682 243.609 305.823 244.203 305.823C244.75 305.823 245.188 305.714 245.516 305.495C245.849 305.271 246.016 304.974 246.016 304.604ZM256.484 302.714C256.484 304 256.19 305.037 255.602 305.823C255.013 306.61 254.216 307.003 253.211 307.003C252.185 307.003 251.378 306.677 250.789 306.026V310.097H249.344V298.393H250.664L250.734 299.331C251.323 298.602 252.141 298.237 253.188 298.237C254.203 298.237 255.005 298.62 255.594 299.386C256.188 300.151 256.484 301.216 256.484 302.581V302.714ZM255.039 302.55C255.039 301.597 254.836 300.844 254.43 300.292C254.023 299.74 253.466 299.464 252.758 299.464C251.883 299.464 251.227 299.852 250.789 300.628V304.667C251.221 305.438 251.883 305.823 252.773 305.823C253.466 305.823 254.016 305.55 254.422 305.003C254.833 304.451 255.039 303.633 255.039 302.55ZM263.547 306.847C263.464 306.68 263.396 306.383 263.344 305.956C262.672 306.654 261.87 307.003 260.938 307.003C260.104 307.003 259.419 306.768 258.883 306.3C258.352 305.826 258.086 305.227 258.086 304.503C258.086 303.623 258.419 302.94 259.086 302.456C259.758 301.966 260.701 301.722 261.914 301.722H263.32V301.057C263.32 300.552 263.169 300.151 262.867 299.854C262.565 299.552 262.12 299.401 261.531 299.401C261.016 299.401 260.583 299.531 260.234 299.792C259.885 300.052 259.711 300.367 259.711 300.737H258.258C258.258 300.315 258.406 299.909 258.703 299.518C259.005 299.123 259.411 298.81 259.922 298.581C260.438 298.352 261.003 298.237 261.617 298.237C262.591 298.237 263.354 298.482 263.906 298.972C264.458 299.456 264.745 300.125 264.766 300.979V304.87C264.766 305.646 264.865 306.263 265.062 306.722V306.847H263.547ZM261.148 305.745C261.602 305.745 262.031 305.628 262.438 305.393C262.844 305.159 263.138 304.854 263.32 304.479V302.745H262.188C260.417 302.745 259.531 303.263 259.531 304.3C259.531 304.753 259.682 305.107 259.984 305.362C260.286 305.617 260.674 305.745 261.148 305.745ZM268.398 298.393L268.445 299.456C269.091 298.643 269.935 298.237 270.977 298.237C272.763 298.237 273.664 299.245 273.68 301.261V306.847H272.234V301.253C272.229 300.643 272.089 300.193 271.812 299.901C271.542 299.61 271.117 299.464 270.539 299.464C270.07 299.464 269.659 299.589 269.305 299.839C268.951 300.089 268.674 300.417 268.477 300.823V306.847H267.031V298.393H268.398Z" fill="white" fill-opacity="0.5"/>
<defs>
<clipPath id="clip0">
<rect width="28" height="31.6074" fill="white" transform="translate(185 136.273)"/>
</clipPath>
<clipPath id="clip1">
<rect width="32" height="36.1227" fill="white" transform="translate(11 293)"/>
</clipPath>
<clipPath id="clip2">
<rect width="32" height="36.1227" fill="white" transform="translate(0 18)"/>
</clipPath>
</defs>
</svg>
