<svg width="399" height="26" viewBox="0 0 399 26" fill="none" xmlns="http://www.w3.org/2000/svg">
<g clip-path="url(#clip0)">
<path d="M203.75 6.09375V24.7812H188.375V1.21875H199.25L203.75 6.09375Z" stroke="white" stroke-opacity="0.5" stroke-width="2" stroke-miterlimit="10"/>
<path d="M208.625 0.40625V21.9375L210.125 25.1875L211.625 21.9375V0.40625H208.625Z" stroke="white" stroke-opacity="0.5" stroke-width="2" stroke-miterlimit="10"/>
<path d="M191 5.28125H195.5" stroke="white" stroke-opacity="0.5" stroke-width="2" stroke-miterlimit="10"/>
<path d="M191 9.34375H201.125" stroke="white" stroke-opacity="0.5" stroke-width="2" stroke-miterlimit="10"/>
<path d="M191 12.5938H201.125" stroke="white" stroke-opacity="0.5" stroke-width="2" stroke-miterlimit="10"/>
<path d="M191 15.8438H201.125" stroke="white" stroke-opacity="0.5" stroke-width="2" stroke-miterlimit="10"/>
<path d="M191 19.0938H201.125" stroke="white" stroke-opacity="0.5" stroke-width="2" stroke-miterlimit="10"/>
<path d="M203.75 6.09375H199.25V1.21875" stroke="white" stroke-opacity="0.5" stroke-width="2" stroke-miterlimit="10"/>
<path d="M208.625 4.46875H211.625" stroke="white" stroke-opacity="0.5" stroke-width="2" stroke-miterlimit="10"/>
</g>
<path d="M345.162 6.36462L333 12.9651L345.162 19.5656" stroke="white" stroke-opacity="0.5" stroke-width="2"/>
<path d="M383.838 20.5657L396 13.9652L383.838 7.36465" stroke="white" stroke-opacity="0.5" stroke-width="2"/>
<path d="M352.566 12.1749C353.207 11.3885 354.04 10.9952 355.066 10.9952C356.852 10.9952 357.753 12.0031 357.769 14.0187V19.6046H356.324V14.0109C356.319 13.4015 356.178 12.951 355.902 12.6593C355.631 12.3676 355.207 12.2218 354.628 12.2218C354.16 12.2218 353.748 12.3468 353.394 12.5968C353.04 12.8468 352.764 13.1749 352.566 13.5812V19.6046H351.121V7.60461H352.566V12.1749ZM361.894 9.10461V11.1515H363.472V12.2687H361.894V17.5109C361.894 17.8494 361.964 18.1046 362.105 18.2765C362.246 18.4432 362.485 18.5265 362.824 18.5265C362.99 18.5265 363.22 18.4952 363.511 18.4327V19.6046C363.131 19.7088 362.761 19.7609 362.402 19.7609C361.756 19.7609 361.269 19.5656 360.941 19.1749C360.613 18.7843 360.449 18.2296 360.449 17.5109V12.2687H358.91V11.1515H360.449V9.10461H361.894ZM366.527 11.1515L366.566 12.089C367.186 11.3598 368.022 10.9952 369.074 10.9952C370.256 10.9952 371.061 11.4484 371.488 12.3546C371.769 11.9484 372.134 11.6202 372.582 11.3702C373.035 11.1202 373.569 10.9952 374.183 10.9952C376.037 10.9952 376.98 11.977 377.011 13.9406V19.6046H375.566V14.0265C375.566 13.4223 375.428 12.9718 375.152 12.6749C374.876 12.3728 374.412 12.2218 373.761 12.2218C373.225 12.2218 372.779 12.3833 372.425 12.7062C372.071 13.0239 371.865 13.4536 371.808 13.9952V19.6046H370.355V14.0656C370.355 12.8364 369.753 12.2218 368.55 12.2218C367.602 12.2218 366.954 12.6254 366.605 13.4327V19.6046H365.16V11.1515H366.527ZM380.769 19.6046H379.324V7.60461H380.769V19.6046Z" fill="white" fill-opacity="0.5"/>
<path d="M17.2161 2.16748L2.71973 10.0348L17.2161 17.9021" stroke="white" stroke-opacity="0.5" stroke-width="2"/>
<path d="M43.3098 17.9022L57.8062 10.0349L43.3098 2.16757" stroke="white" stroke-opacity="0.5" stroke-width="2"/>
<path d="M25.5537 7.63977C26.1943 6.85331 27.0277 6.46008 28.0537 6.46008C29.8402 6.46008 30.7412 7.4679 30.7568 9.48352V15.0695H29.3115V9.47571C29.3063 8.86633 29.1657 8.41581 28.8896 8.12415C28.6188 7.83248 28.1943 7.68665 27.6162 7.68665C27.1475 7.68665 26.736 7.81165 26.3818 8.06165C26.0277 8.31165 25.7516 8.63977 25.5537 9.04602V15.0695H24.1084V3.06946H25.5537V7.63977ZM37.5225 15.0695H36.0693V5.43665L33.1553 6.50696V5.19446L37.2959 3.63977H37.5225V15.0695Z" fill="white" fill-opacity="0.5"/>
<defs>
<clipPath id="clip0">
<rect width="24" height="26" fill="white" transform="translate(188)"/>
</clipPath>
</defs>
</svg>
