<svg width="410" height="24" viewBox="0 0 410 24" fill="none" xmlns="http://www.w3.org/2000/svg">
<g clip-path="url(#clip0)">
<path d="M388.344 23.625V0.75L409.312 23.625H388.344Z" stroke="white" stroke-opacity="0.5" stroke-width="2" stroke-miterlimit="10"/>
<path d="M392.812 20.25V11.25L401.062 20.25H392.812Z" stroke="white" stroke-opacity="0.5" stroke-width="2" stroke-miterlimit="10"/>
<path d="M390.75 8.25H388.688" stroke="white" stroke-opacity="0.5" stroke-width="2" stroke-miterlimit="10"/>
<path d="M390.062 11.25H388.688" stroke="white" stroke-opacity="0.5" stroke-width="2" stroke-miterlimit="10"/>
<path d="M390.75 14.25H388.688" stroke="white" stroke-opacity="0.5" stroke-width="2" stroke-miterlimit="10"/>
<path d="M390.062 17.25H388.688" stroke="white" stroke-opacity="0.5" stroke-width="2" stroke-miterlimit="10"/>
<path d="M390.75 20.25H388.688" stroke="white" stroke-opacity="0.5" stroke-width="2" stroke-miterlimit="10"/>
<path d="M396.594 0.375L394.531 2.625L406.906 16.125L409.656 16.875L408.969 13.875L396.594 0.375Z" stroke="white" stroke-opacity="0.5" stroke-width="2" stroke-miterlimit="10"/>
<path d="M396.594 4.875L398.656 2.625" stroke="white" stroke-opacity="0.5" stroke-width="2" stroke-miterlimit="10"/>
</g>
<path d="M15.2727 5.77612L3 12.4366L15.2727 19.0972" stroke="white" stroke-opacity="0.5" stroke-width="2"/>
<path d="M53.7273 19.0972L66 12.4367L53.7273 5.77613" stroke="white" stroke-opacity="0.5" stroke-width="2"/>
<path d="M24.1975 15.7578C24.1975 15.3672 24.0491 15.0651 23.7522 14.8516C23.4605 14.6328 22.9475 14.4453 22.2131 14.2891C21.484 14.1328 20.9032 13.9453 20.4709 13.7266C20.0439 13.5078 19.7262 13.2474 19.5178 12.9453C19.3147 12.6432 19.2131 12.2839 19.2131 11.8672C19.2131 11.1745 19.5048 10.5885 20.0881 10.1094C20.6767 9.63021 21.4267 9.39062 22.3381 9.39062C23.2965 9.39062 24.0725 9.63802 24.6663 10.1328C25.2652 10.6276 25.5647 11.2604 25.5647 12.0312H24.1116C24.1116 11.6354 23.9423 11.2943 23.6038 11.0078C23.2704 10.7214 22.8486 10.5781 22.3381 10.5781C21.8121 10.5781 21.4006 10.6927 21.1038 10.9219C20.8069 11.151 20.6584 11.4505 20.6584 11.8203C20.6584 12.1693 20.7965 12.4323 21.0725 12.6094C21.3486 12.7865 21.8459 12.9557 22.5647 13.1172C23.2887 13.2786 23.8746 13.4714 24.3225 13.6953C24.7704 13.9193 25.1012 14.1901 25.3147 14.5078C25.5334 14.8203 25.6428 15.2031 25.6428 15.6562C25.6428 16.4115 25.3407 17.0182 24.7366 17.4766C24.1324 17.9297 23.3486 18.1562 22.385 18.1562C21.7079 18.1562 21.109 18.0365 20.5881 17.7969C20.0673 17.5573 19.6584 17.224 19.3616 16.7969C19.0699 16.3646 18.9241 15.8984 18.9241 15.3984H20.3694C20.3954 15.8828 20.5881 16.2682 20.9475 16.5547C21.3121 16.8359 21.7913 16.9766 22.385 16.9766C22.9319 16.9766 23.3694 16.8672 23.6975 16.6484C24.0308 16.4245 24.1975 16.1276 24.1975 15.7578ZM34.6663 13.8672C34.6663 15.1536 34.372 16.1901 33.7834 16.9766C33.1949 17.763 32.398 18.1562 31.3928 18.1562C30.3668 18.1562 29.5595 17.8307 28.9709 17.1797V21.25H27.5256V9.54688H28.8459L28.9163 10.4844C29.5048 9.75521 30.3225 9.39062 31.3694 9.39062C32.385 9.39062 33.1871 9.77344 33.7756 10.5391C34.3694 11.3047 34.6663 12.3698 34.6663 13.7344V13.8672ZM33.2209 13.7031C33.2209 12.75 33.0178 11.9974 32.6116 11.4453C32.2053 10.8932 31.648 10.6172 30.9397 10.6172C30.0647 10.6172 29.4084 11.0052 28.9709 11.7812V15.8203C29.4032 16.5911 30.0647 16.9766 30.9553 16.9766C31.648 16.9766 32.1975 16.7031 32.6038 16.1562C33.0152 15.6042 33.2209 14.7865 33.2209 13.7031ZM41.7288 18C41.6454 17.8333 41.5777 17.5365 41.5256 17.1094C40.8538 17.8073 40.0517 18.1562 39.1194 18.1562C38.2861 18.1562 37.6012 17.9219 37.0647 17.4531C36.5334 16.9792 36.2678 16.3802 36.2678 15.6562C36.2678 14.776 36.6012 14.0938 37.2678 13.6094C37.9397 13.1198 38.8824 12.875 40.0959 12.875H41.5022V12.2109C41.5022 11.7057 41.3512 11.3047 41.0491 11.0078C40.747 10.7057 40.3017 10.5547 39.7131 10.5547C39.1975 10.5547 38.7652 10.6849 38.4163 10.9453C38.0673 11.2057 37.8928 11.5208 37.8928 11.8906H36.4397C36.4397 11.4688 36.5881 11.0625 36.885 10.6719C37.1871 10.276 37.5933 9.96354 38.1038 9.73438C38.6194 9.50521 39.1845 9.39062 39.7991 9.39062C40.773 9.39062 41.5361 9.63542 42.0881 10.125C42.6402 10.6094 42.9267 11.2786 42.9475 12.1328V16.0234C42.9475 16.7995 43.0465 17.4167 43.2444 17.875V18H41.7288ZM39.3303 16.8984C39.7834 16.8984 40.2131 16.7812 40.6194 16.5469C41.0256 16.3125 41.3199 16.0078 41.5022 15.6328V13.8984H40.3694C38.5986 13.8984 37.7131 14.4167 37.7131 15.4531C37.7131 15.9062 37.8642 16.2604 38.1663 16.5156C38.4683 16.7708 38.8564 16.8984 39.3303 16.8984ZM46.5803 9.54688L46.6272 10.6094C47.273 9.79688 48.1168 9.39062 49.1584 9.39062C50.9449 9.39062 51.8459 10.3984 51.8616 12.4141V18H50.4163V12.4062C50.4111 11.7969 50.2704 11.3464 49.9944 11.0547C49.7236 10.763 49.2991 10.6172 48.7209 10.6172C48.2522 10.6172 47.8407 10.7422 47.4866 10.9922C47.1324 11.2422 46.8564 11.5703 46.6584 11.9766V18H45.2131V9.54688H46.5803Z" fill="white" fill-opacity="0.5"/>
<defs>
<clipPath id="clip0">
<rect width="22" height="24" fill="white" transform="translate(388)"/>
</clipPath>
</defs>
</svg>
