<svg width="35" height="35" viewBox="0 0 35 35" fill="none" xmlns="http://www.w3.org/2000/svg">
<g clip-path="url(#clip0)">
<path d="M8.75118 35.0001C13.5802 35.0001 17.4994 32.3867 17.4994 29.1667V23.3334H8.75118C3.92215 23.3334 0.00292969 25.9467 0.00292969 29.1667C0.00292969 32.3867 3.92215 35.0001 8.75118 35.0001Z" fill="#0ACF83"/>
<path d="M0.00292969 17.5C0.00292969 14.28 3.92215 11.6666 8.75118 11.6666H17.4994V23.3333H8.75118C3.92215 23.3333 0.00292969 20.72 0.00292969 17.5Z" fill="#A259FF"/>
<path d="M0.00195312 5.83333C0.00195312 2.61333 3.92117 0 8.7502 0H17.4985V11.6667H8.7502C3.92117 11.6667 0.00195312 9.05333 0.00195312 5.83333Z" fill="#F24E1E"/>
<path d="M17.5 0H26.2483C31.0773 0 34.9965 2.61333 34.9965 5.83333C34.9965 9.05333 31.0773 11.6667 26.2483 11.6667H17.5V0Z" fill="#FF7262"/>
<path d="M34.9965 17.5C34.9965 20.72 31.0773 23.3333 26.2483 23.3333C21.4192 23.3333 17.5 20.72 17.5 17.5C17.5 14.28 21.4192 11.6666 26.2483 11.6666C31.0773 11.6666 34.9965 14.28 34.9965 17.5Z" fill="#1ABCFE"/>
</g>
<defs>
<clipPath id="clip0">
<rect width="35" height="35" fill="white"/>
</clipPath>
</defs>
</svg>
