<svg width="35" height="35" viewBox="0 0 35 35" fill="none" xmlns="http://www.w3.org/2000/svg">
<path d="M0 0.438599V34.5614H35V0.438599H0ZM1.45797 1.89657H33.5409V33.1023H1.45797V1.89657ZM12.1395 19.7619L10.9834 24.1314C10.9605 24.2572 10.9145 24.2791 10.7723 24.2791H8.63078C8.48312 24.2791 8.46016 24.2331 8.48313 24.068L12.6241 9.56485C12.6984 9.30235 12.7433 9.06938 12.7662 8.34532C12.7662 8.24797 12.8177 8.20313 12.892 8.20313H15.9458C16.0431 8.20313 16.0934 8.2261 16.1164 8.34532L20.7594 24.0909C20.7878 24.2102 20.7594 24.2791 20.6402 24.2791H18.2361C18.1103 24.2791 18.0425 24.2506 18.0195 24.1533L16.812 19.7608H12.1352L12.1395 19.7619ZM16.2072 17.3917C15.797 15.7795 14.8345 12.2478 14.4758 10.5383H14.4473C14.14 12.2413 13.3645 15.1298 12.7673 17.3917H16.2072ZM22.7697 9.28594C22.7697 8.34641 23.4194 7.79297 24.2627 7.79297C25.1519 7.79297 25.7556 8.39672 25.7556 9.28594C25.7556 10.2484 25.1289 10.7789 24.2342 10.7789C23.3625 10.7789 22.7642 10.2495 22.7642 9.28594H22.7697ZM22.9348 12.6011C22.9348 12.4873 22.9808 12.4414 23.1 12.4414H25.3903C25.5216 12.4414 25.5664 12.4873 25.5664 12.612V24.1248C25.5664 24.2441 25.5434 24.29 25.3958 24.29H23.1394C22.9917 24.29 22.9458 24.2211 22.9458 24.1019V12.6L22.9348 12.6011Z" fill="#FF7A05"/>
</svg>
