<svg width="35" height="35" viewBox="0 0 35 35" fill="none" xmlns="http://www.w3.org/2000/svg">
<path d="M3.46387 3.84668H31.5361V31.1532H3.46387V3.84668Z" fill="#0C0824"/>
<path d="M3.46391 3.84672H31.5361V31.1533H3.46391V3.84672ZM2.1875 32.4297H32.8125V2.57031H2.1875V32.4297ZM22.8342 14.8203C21.8258 14.8203 21.4812 15.3311 21.4812 15.7522C21.4812 16.2116 21.7109 16.5309 23.0639 17.232C25.0677 18.2022 25.6889 19.133 25.6889 20.4991C25.6889 22.5411 24.1325 23.6381 22.027 23.6381C21.1234 23.6716 20.2253 23.4839 19.4108 23.0912C19.3211 23.053 19.3091 22.9895 19.3091 22.8867V21.0087C19.3091 20.8808 19.3725 20.8425 19.4622 20.907C20.2271 21.3989 21.1176 21.6602 22.027 21.6595C23.0355 21.6595 23.4566 21.2384 23.4566 20.6642C23.4566 20.2048 23.1634 19.7969 21.8739 19.133C20.0616 18.2656 19.3091 17.383 19.3091 15.9173C19.3091 14.2713 20.5975 12.9063 22.8309 12.9063C23.6084 12.8729 24.3847 12.9944 25.1147 13.2639C25.1567 13.2912 25.1907 13.3292 25.2132 13.374C25.2357 13.4188 25.2459 13.4687 25.2427 13.5188V15.2688C25.2427 15.3705 25.1792 15.435 25.0512 15.3967C24.3766 15.0083 23.6093 14.8099 22.8309 14.8225L22.8342 14.8203ZM11.8595 16.3384C12.1527 16.3636 12.3823 16.3636 12.8931 16.3636C14.3861 16.3636 15.7894 15.8408 15.7894 13.8119C15.7894 12.1909 14.7809 11.375 13.0845 11.375C12.5738 11.375 12.0892 11.4002 11.8595 11.4133V16.3384ZM9.58781 9.55719C9.58781 9.4675 9.76609 9.40406 9.86891 9.40406C10.9657 9.35924 12.0634 9.33809 13.1611 9.34063C16.6961 9.34063 18.0742 11.2798 18.0742 13.7561C18.0742 16.9969 15.7259 18.3881 12.8428 18.3881C12.3583 18.3881 12.192 18.363 11.8475 18.363V23.263C11.8475 23.3647 11.8092 23.4161 11.6944 23.4161H9.74203C9.64031 23.4161 9.58891 23.3778 9.58891 23.263V9.56266L9.58781 9.55719Z" fill="#31C5F0"/>
</svg>
