<svg width="45" height="45" viewBox="0 0 45 45" fill="none" xmlns="http://www.w3.org/2000/svg">
<path d="M22.5025 1.93376e-06C10.0698 -0.00516217 0 10.3334 0 23.0939C0 33.1845 6.2993 41.7621 15.0721 44.9122C16.2535 45.2169 16.0725 44.3545 16.0725 43.7658V39.7636C9.25036 40.5847 8.97386 35.9473 8.51637 35.1727C7.59133 33.5512 5.40442 33.1381 6.05798 32.3634C7.61144 31.5423 9.19506 32.57 11.0301 35.3535C12.3573 37.3726 14.9464 37.0318 16.2585 36.6961C16.5451 35.4826 17.1584 34.3981 18.003 33.5563C10.9345 32.255 7.98849 27.8242 7.98849 22.5568C7.98849 20.0006 8.80796 17.6509 10.4167 15.7557C9.39113 12.6314 10.5122 9.95639 10.6631 9.55876C13.584 9.29022 16.6205 11.707 16.8568 11.8981C18.5158 11.4385 20.4111 11.1958 22.5327 11.1958C24.6643 11.1958 26.5646 11.4488 28.2387 11.9136C28.8068 11.4695 31.6222 9.39351 34.3369 9.64655C34.4827 10.0442 35.5787 12.6572 34.6135 15.7402C36.2423 17.6406 37.0718 20.0109 37.0718 22.5723C37.0718 27.85 34.1057 32.286 27.0171 33.5667C27.6243 34.18 28.1063 34.9115 28.4352 35.7183C28.7641 36.5252 28.9331 37.3913 28.9325 38.266V44.0756C28.9727 44.5404 28.9325 45 29.6866 45C38.5901 41.917 45 33.2775 45 23.099C45 10.3334 34.9251 1.93376e-06 22.5025 1.93376e-06V1.93376e-06Z" fill="black"/>
</svg>
