<svg width="39" height="39" viewBox="0 0 39 39" fill="none" xmlns="http://www.w3.org/2000/svg">
<path d="M0.757525 38.25L3.29252 28.935C1.62216 26.0716 0.74458 22.815 0.750025 19.5C0.750025 9.14438 9.1444 0.75 19.5 0.75C29.8556 0.75 38.25 9.14438 38.25 19.5C38.25 29.8556 29.8556 38.25 19.5 38.25C16.1865 38.2554 12.9313 37.3784 10.0688 35.7094L0.757525 38.25ZM12.7331 10.7025C12.491 10.7175 12.2544 10.7813 12.0375 10.89C11.8341 11.0052 11.6485 11.1492 11.4863 11.3175C11.2613 11.5294 11.1338 11.7131 10.9969 11.8913C10.3039 12.7931 9.93117 13.9002 9.93752 15.0375C9.94127 15.9563 10.1813 16.8506 10.5563 17.6869C11.3231 19.3781 12.585 21.1688 14.2519 22.8281C14.6531 23.2275 15.045 23.6288 15.4669 24.0019C17.5358 25.8234 20.0011 27.137 22.6669 27.8381L23.7338 28.0013C24.0806 28.02 24.4275 27.9938 24.7763 27.9769C25.3223 27.9487 25.8555 27.8008 26.3381 27.5438C26.5837 27.4173 26.8233 27.2796 27.0563 27.1313C27.0563 27.1313 27.1369 27.0788 27.2906 26.9625C27.5438 26.775 27.6994 26.6419 27.9094 26.4225C28.065 26.2613 28.2 26.0719 28.3031 25.8563C28.4494 25.5506 28.5956 24.9675 28.6556 24.4819C28.7006 24.1106 28.6875 23.9081 28.6819 23.7825C28.6744 23.5819 28.5075 23.3738 28.3256 23.2856L27.2344 22.7963C27.2344 22.7963 25.6031 22.0856 24.6075 21.6319C24.5025 21.5861 24.3901 21.5601 24.2756 21.555C24.1474 21.5418 24.0177 21.5563 23.8955 21.5973C23.7732 21.6384 23.6612 21.7052 23.5669 21.7931V21.7894C23.5575 21.7894 23.4319 21.8963 22.0763 23.5388C21.9985 23.6433 21.8913 23.7223 21.7684 23.7657C21.6455 23.8091 21.5125 23.815 21.3863 23.7825C21.2641 23.7498 21.1444 23.7085 21.0281 23.6588C20.7956 23.5613 20.715 23.5238 20.5556 23.4544L20.5463 23.4506C19.4736 22.9823 18.4804 22.3497 17.6025 21.5756C17.3663 21.3694 17.1469 21.1444 16.9219 20.9269C16.1842 20.2204 15.5414 19.4213 15.0094 18.5494L14.8988 18.3713C14.8193 18.2516 14.7551 18.1224 14.7075 17.9869C14.6363 17.7113 14.8219 17.49 14.8219 17.49C14.8219 17.49 15.2775 16.9913 15.4894 16.7213C15.6658 16.4969 15.8304 16.2634 15.9825 16.0219C16.2038 15.6656 16.2731 15.3 16.1569 15.0169C15.6319 13.7344 15.0881 12.4575 14.5294 11.19C14.4188 10.9388 14.0906 10.7588 13.7925 10.7231C13.6913 10.7119 13.59 10.7006 13.4888 10.6931C13.237 10.6806 12.9847 10.6831 12.7331 10.7006V10.7025Z" fill="black"/>
</svg>
